<svg width="24" height="22" viewBox="0 0 24 22" fill="none" xmlns="http://www.w3.org/2000/svg">
<path d="M23.2195 0.291774C22.8216 -0.0456956 22.1965 -0.0939812 21.5502 0.165488H21.5492C20.8694 0.438223 2.30863 8.39953 1.55304 8.72479C1.41561 8.77255 0.215364 9.22038 0.338997 10.2179C0.449364 11.1173 1.41402 11.4898 1.53181 11.5328L6.25055 13.1485C6.56361 14.1906 7.71769 18.0354 7.97291 18.8568C8.1321 19.3689 8.39157 20.0417 8.8463 20.1802C9.24532 20.3341 9.64222 20.1934 9.89904 19.9918L12.784 17.3159L17.4412 20.948L17.5521 21.0143C17.8683 21.1544 18.1713 21.2244 18.4605 21.2244C18.6838 21.2244 18.8982 21.1825 19.103 21.0987C19.8008 20.8121 20.0799 20.1473 20.1091 20.0719L23.5878 1.99026C23.8 1.02455 23.505 0.533202 23.2195 0.291774ZM10.4121 13.7948L8.8203 18.0397L7.22846 12.7336L19.4325 3.71316L10.4121 13.7948Z" fill="white"/>
</svg>
