<svg width="27" height="28" viewBox="0 0 27 28" fill="none" xmlns="http://www.w3.org/2000/svg">
<path d="M10.7683 0C4.81507 0 0 4.81507 0 10.7683C0 16.7216 4.81507 21.5367 10.7683 21.5367C12.8938 21.5367 14.8609 20.9131 16.5286 19.8541L24.3079 27.6334L27 24.9413L19.3196 17.2808C20.7003 15.4696 21.5367 13.2253 21.5367 10.7683C21.5367 4.81507 16.7216 0 10.7683 0ZM10.7683 2.53372C15.3285 2.53372 19.0029 6.20812 19.0029 10.7683C19.0029 15.3285 15.3285 19.0029 10.7683 19.0029C6.20812 19.0029 2.53372 15.3285 2.53372 10.7683C2.53372 6.20812 6.20812 2.53372 10.7683 2.53372Z" fill="#4B4F54"/>
</svg>
