<svg width="25" height="26" viewBox="0 0 25 26" fill="none" xmlns="http://www.w3.org/2000/svg">
<path d="M9.87092 0.333496C4.41379 0.333496 0 4.74729 0 10.2044C0 15.6616 4.41379 20.0753 9.87092 20.0753C11.8193 20.0753 13.6224 19.5038 15.1511 18.533L22.2822 25.664L24.7499 23.1963L17.7096 16.1742C18.9752 14.5139 19.7418 12.4567 19.7418 10.2044C19.7418 4.74729 15.3281 0.333496 9.87092 0.333496ZM9.87092 2.65607C14.0511 2.65607 17.4193 6.02425 17.4193 10.2044C17.4193 14.3846 14.0511 17.7528 9.87092 17.7528C5.69075 17.7528 2.32257 14.3846 2.32257 10.2044C2.32257 6.02425 5.69075 2.65607 9.87092 2.65607Z" fill="white"/>
</svg>
