<svg width="22" height="22" viewBox="0 0 22 22" fill="none" xmlns="http://www.w3.org/2000/svg">
<path d="M11.2139 20.767C16.7925 20.767 21.3148 16.2196 21.3148 10.6101C21.3148 5.00054 16.7925 0.453125 11.2139 0.453125C5.63531 0.453125 1.11298 5.00054 1.11298 10.6101C1.11298 16.2196 5.63531 20.767 11.2139 20.767Z" fill="white"/>
<path d="M11.2139 19.5057C16.1264 19.5057 20.1088 15.5233 20.1088 10.6108C20.1088 5.69822 16.1264 1.71582 11.2139 1.71582C6.30137 1.71582 2.31897 5.69822 2.31897 10.6108C2.31897 15.5233 6.30137 19.5057 11.2139 19.5057Z" fill="#141A20"/>
<path d="M16.018 3.14031L7.11478 18.505C5.62543 17.7291 4.38485 16.5461 3.53967 15.1013L11.2863 1.73169C13.0277 1.74652 14.6505 2.26054 16.018 3.14031V3.14031Z" fill="#ED1C24"/>
<path d="M20.0792 9.9902L15.0773 18.6232C13.9092 19.1883 12.5978 19.5046 11.2139 19.5046C10.5054 19.5046 9.81843 19.4222 9.15778 19.2657L17.6936 4.53528C19.0528 5.98344 19.9325 7.88633 20.0792 9.9902V9.9902Z" fill="#ED1C24"/>
<path d="M8.11981 2.28528L2.44577 12.0765C2.36834 11.602 2.32715 11.1143 2.32715 10.6184C2.32715 6.79782 4.73746 3.54233 8.11981 2.28528Z" fill="#ED1C24"/>
<path d="M20.0924 15.457C19.9952 15.6366 19.8914 15.8129 19.7826 15.9859H2.64518C2.53645 15.8129 2.43265 15.6366 2.33545 15.457L11.0047 0.458067C11.0739 0.45642 11.1431 0.453125 11.2139 0.453125C11.2831 0.453125 11.3523 0.45642 11.4215 0.458067L13.0196 3.22095V3.2193L20.0924 15.457Z" fill="white"/>
<path d="M14.2882 13.374L15.303 15.1286H7.12476L8.13798 13.374H14.2882Z" fill="#ED1C24"/>
<path d="M11.2139 1.80859L12.5352 4.09534L10.7295 7.21739L12.0113 9.43494H9.44778L6.15769 15.1288H3.51343L11.2139 1.80859Z" fill="#ED1C24"/>
<path d="M14.7742 12.5408H8.62073L9.9338 10.2689H13.4611L11.6983 7.21937L13.0196 4.93262L18.9144 15.1291H16.2718L14.7742 12.5408Z" fill="#ED1C24"/>
<path fill-rule="evenodd" clip-rule="evenodd" d="M11.2139 21.22C5.39487 21.22 0.659912 16.4603 0.659912 10.61C0.659912 4.75967 5.39487 0 11.2139 0C17.0329 0 21.7679 4.75967 21.7679 10.61C21.7679 16.4603 17.0329 21.22 11.2139 21.22V21.22ZM11.2139 0.904486C5.89407 0.904486 1.56605 5.25887 1.56605 10.61C1.56605 15.9611 5.89407 20.3155 11.2139 20.3155C16.5337 20.3155 20.8617 15.9611 20.8617 10.61C20.8617 5.25887 16.5337 0.904486 11.2139 0.904486V0.904486Z" fill="#ED1C24"/>
</svg>
