<svg width="68" height="68" viewBox="0 0 68 68" fill="none" xmlns="http://www.w3.org/2000/svg">
<path d="M30.3242 0L28.0508 5.67578C24.4688 6.42578 21.1367 7.82812 18.1719 9.76562L12.5586 7.35938L7.35938 12.5586L9.76562 18.1719C7.82422 21.1367 6.42578 24.4688 5.67578 28.0508L0 30.3242V37.6758L5.67578 39.9492C6.42578 43.5312 7.82812 46.8633 9.76562 49.8281L7.35938 55.4414L12.5586 60.6406L18.1719 58.2344C21.1367 60.1758 24.4688 61.5742 28.0508 62.3242L30.3242 68H37.6758L39.9492 62.3242C43.5312 61.5742 46.8633 60.1719 49.8281 58.2344L55.4414 60.6406L60.6406 55.4414L58.2344 49.8281C60.1758 46.8633 61.5742 43.5312 62.3242 39.9492L68 37.6758V30.3242L62.3242 28.0508C61.5742 24.4688 60.1719 21.1367 58.2344 18.1719L60.6406 12.5586L55.4414 7.35938L49.8281 9.76562C46.8633 7.82422 43.5312 6.42578 39.9492 5.67578L37.6758 0H30.3242ZM31.6758 2H36.3242L38.4688 7.37109L39.0117 7.46875C42.7383 8.17188 46.1992 9.63281 49.2188 11.6992L49.6719 12.0039L54.9844 9.73047L58.2695 13.0156L55.9922 18.3281L56.3008 18.7812C58.3672 21.8008 59.8281 25.2578 60.5273 28.9883L60.6289 29.5312L66 31.6758V36.3242L60.6289 38.4688L60.5312 39.0117C59.8281 42.7383 58.3672 46.1992 56.3008 49.2188L55.9961 49.6719L58.2695 54.9844L54.9844 58.2695L49.6719 55.9922L49.2188 56.3008C46.1992 58.3672 42.7422 59.8281 39.0117 60.5273L38.4688 60.6289L36.3242 66H31.6758L29.5312 60.6289L28.9883 60.5312C25.2617 59.8281 21.8008 58.3672 18.7812 56.3008L18.3281 55.9961L13.0156 58.2695L9.73047 54.9844L12.0078 49.6719L11.6992 49.2188C9.63281 46.1992 8.17188 42.7422 7.47266 39.0117L7.37109 38.4688L2 36.3242V31.6758L7.37109 29.5312L7.46875 28.9883C8.17188 25.2617 9.63281 21.8008 11.6992 18.7812L12.0039 18.3281L9.73047 13.0156L13.0156 9.73047L18.3281 12.0078L18.7812 11.6992C21.8008 9.63281 25.2578 8.17188 28.9883 7.47266L29.5312 7.37109L31.6758 2ZM34 15C33.4492 15 33 15.4492 33 16C33 16.5508 33.4492 17 34 17C34.5508 17 35 16.5508 35 16C35 15.4492 34.5508 15 34 15ZM29.3477 15.6133C29.3242 15.6133 29.3008 15.6133 29.2812 15.6133C29.2109 15.6211 29.1484 15.6289 29.082 15.6484C28.5469 15.793 28.2305 16.3398 28.375 16.875C28.5195 17.4062 29.0664 17.7227 29.5977 17.5781C30.1328 17.4375 30.4492 16.8906 30.3086 16.3555C30.1914 15.9219 29.8008 15.6172 29.3477 15.6133ZM38.6523 15.6133C38.2031 15.6172 37.8086 15.9219 37.6914 16.3555C37.5508 16.8906 37.8672 17.4375 38.4023 17.5781C38.9336 17.7227 39.4805 17.4062 39.625 16.875C39.7695 16.3398 39.4531 15.793 38.918 15.6484C38.832 15.625 38.7422 15.6133 38.6523 15.6133ZM24.9766 17.4102C24.8086 17.4141 24.6445 17.4609 24.5 17.5469C24.2695 17.6758 24.1016 17.8945 24.0312 18.1523C23.9648 18.4102 24 18.6836 24.1328 18.9102C24.2656 19.1406 24.4844 19.3086 24.7422 19.3789C24.9961 19.4453 25.2695 19.4102 25.5 19.2773C25.9766 19 26.1406 18.3906 25.8633 17.9102C25.6836 17.5938 25.3438 17.4023 24.9766 17.4102ZM42.9531 17.4141C42.6133 17.4297 42.3047 17.6172 42.1328 17.9102C42 18.1406 41.9648 18.4141 42.0312 18.6719C42.1016 18.9297 42.2695 19.1484 42.5 19.2812C42.9766 19.5547 43.5898 19.3906 43.8633 18.9102C44.1406 18.4336 43.9766 17.8242 43.5 17.5469C43.332 17.4492 43.1445 17.4062 42.9531 17.4141ZM21.2852 20.2695C21.0156 20.2695 20.7539 20.375 20.5625 20.5625C20.1758 20.9531 20.1758 21.5898 20.5625 21.9805C20.9531 22.3672 21.5898 22.3672 21.9805 21.9805C22.3672 21.5898 22.3672 20.9531 21.9805 20.5625C21.793 20.3789 21.5469 20.2734 21.2852 20.2695ZM46.7422 20.2695C46.4727 20.2656 46.2109 20.3711 46.0195 20.5625C45.6289 20.9531 45.6289 21.5898 46.0195 21.9805C46.4102 22.3672 47.043 22.3672 47.4336 21.9805C47.8242 21.5898 47.8242 20.9531 47.4336 20.5625C47.25 20.3789 47.0039 20.2773 46.7422 20.2695ZM49.5625 24C49.3945 24.0039 49.2305 24.0508 49.0859 24.1328C48.8555 24.2656 48.6875 24.4844 48.6211 24.7422C48.5508 24.9961 48.5859 25.2695 48.7188 25.5C48.9961 25.9766 49.6094 26.1406 50.0859 25.8633C50.5625 25.5898 50.7305 24.9766 50.4531 24.5C50.2695 24.1836 49.9297 23.9922 49.5625 24ZM18.3633 24C18.0234 24.0195 17.7148 24.207 17.5469 24.5C17.4102 24.7305 17.375 25.0039 17.4453 25.2578C17.5156 25.5156 17.6836 25.7344 17.9102 25.8672C18.3906 26.1445 19 25.9766 19.2773 25.5C19.5547 25.0234 19.3906 24.4102 18.9102 24.1367C18.7461 24.0391 18.5547 23.9922 18.3633 24ZM34 26C29.5938 26 26 29.5938 26 34C26 38.4062 29.5938 42 34 42C38.4062 42 42 38.4062 42 34C42 29.5938 38.4062 26 34 26ZM34 28C37.3242 28 40 30.6758 40 34C40 37.3242 37.3242 40 34 40C30.6758 40 28 37.3242 28 34C28 30.6758 30.6758 28 34 28ZM16.6055 28.3438C16.1523 28.3477 15.7617 28.6484 15.6445 29.082C15.5039 29.6172 15.8203 30.1641 16.3555 30.3086C16.8867 30.4531 17.4336 30.1367 17.5781 29.6016C17.7227 29.0664 17.4062 28.5195 16.8711 28.375C16.7852 28.3516 16.6953 28.3398 16.6055 28.3438ZM51.3945 28.3438C51.3711 28.3398 51.3477 28.3438 51.3242 28.3438C51.2578 28.3477 51.1914 28.3594 51.125 28.375C50.5938 28.5195 50.2773 29.0664 50.4219 29.6016C50.5625 30.1367 51.1094 30.4531 51.6445 30.3086C52.1797 30.1641 52.4961 29.6172 52.3516 29.082C52.2344 28.6484 51.8438 28.3477 51.3945 28.3438ZM16 33C15.4492 33 15 33.4492 15 34C15 34.5508 15.4492 35 16 35C16.5508 35 17 34.5508 17 34C17 33.4492 16.5508 33 16 33ZM52 33C51.4492 33 51 33.4492 51 34C51 34.5508 51.4492 35 52 35C52.5508 35 53 34.5508 53 34C53 33.4492 52.5508 33 52 33ZM16.6523 37.6602C16.5508 37.6562 16.4492 37.668 16.3555 37.6914C15.8203 37.8359 15.5039 38.3828 15.6445 38.918C15.7891 39.4531 16.3359 39.7695 16.8711 39.625C17.4062 39.4805 17.7227 38.9336 17.5781 38.4023C17.4648 37.9766 17.0898 37.6758 16.6523 37.6602ZM51.375 37.6602C50.9258 37.6641 50.5352 37.9688 50.4219 38.4023C50.3516 38.6602 50.3867 38.9336 50.5195 39.1602C50.6523 39.3906 50.8711 39.5586 51.1289 39.625C51.6641 39.7695 52.2109 39.4531 52.3555 38.9219C52.4961 38.3867 52.1797 37.8398 51.6445 37.6953C51.5586 37.6719 51.4688 37.6602 51.375 37.6602ZM18.3906 42C18.2227 42.0039 18.0586 42.0469 17.9102 42.1328C17.4336 42.4102 17.2695 43.0195 17.5469 43.5C17.6758 43.7266 17.8945 43.8945 18.1523 43.9648C18.4102 44.0352 18.6836 44 18.9102 43.8633C19.1406 43.7344 19.3086 43.5156 19.3789 43.2578C19.4453 43 19.4102 42.7266 19.2773 42.5C19.0938 42.1797 18.7539 41.9883 18.3906 42ZM49.543 42.0039C49.1992 42.0195 48.8906 42.207 48.7188 42.5C48.5859 42.7305 48.5508 43.0039 48.6211 43.2617C48.6914 43.5195 48.8594 43.7383 49.0898 43.8711C49.5664 44.1445 50.1758 43.9805 50.4531 43.5C50.7305 43.0234 50.5664 42.4141 50.0898 42.1367C49.9219 42.0391 49.7305 41.9961 49.543 42.0039ZM21.2852 45.7305C21.0156 45.7266 20.7539 45.832 20.5625 46.0195C20.1758 46.4102 20.1758 47.0469 20.5625 47.4375C20.9531 47.8242 21.5898 47.8242 21.9805 47.4375C22.3672 47.0469 22.3672 46.4102 21.9805 46.0195C21.793 45.8359 21.5469 45.7305 21.2852 45.7305ZM46.7422 45.7305C46.4727 45.7227 46.2109 45.8281 46.0195 46.0195C45.6289 46.4102 45.6289 47.0469 46.0195 47.4375C46.4102 47.8242 47.043 47.8242 47.4336 47.4375C47.8242 47.0469 47.8242 46.4102 47.4336 46.0195C47.25 45.8359 47.0039 45.7344 46.7422 45.7305ZM42.9727 48.5898C42.8086 48.5898 42.6445 48.6367 42.5 48.7188C42.0195 48.9961 41.8555 49.6094 42.1328 50.0859C42.4102 50.5625 43.0195 50.7305 43.5 50.4531C43.7266 50.3203 43.8945 50.1016 43.9648 49.8438C44.0352 49.5898 44 49.3164 43.8633 49.0859C43.6836 48.7695 43.3398 48.5781 42.9727 48.5898ZM24.9531 48.5898C24.6094 48.6055 24.3008 48.793 24.1328 49.0898C23.8555 49.5664 24.0195 50.1797 24.5 50.4531C24.7266 50.5898 25 50.625 25.2578 50.5547C25.5156 50.4883 25.7344 50.3203 25.8633 50.0898C26 49.8594 26.0352 49.5859 25.9648 49.332C25.8945 49.0742 25.7266 48.8555 25.5 48.7227C25.332 48.625 25.1406 48.582 24.9531 48.5898ZM29.332 50.3906C28.8828 50.3945 28.4922 50.6953 28.375 51.1289C28.2305 51.6641 28.5469 52.2109 29.082 52.3555C29.6172 52.5 30.1641 52.1836 30.3086 51.6484C30.375 51.3906 30.3398 51.1172 30.207 50.8867C30.0742 50.6602 29.8555 50.4922 29.5977 50.4219C29.5117 50.3984 29.4219 50.3867 29.332 50.3906ZM38.6992 50.3906C38.5977 50.3867 38.4961 50.3945 38.4023 50.4219C37.8672 50.5664 37.5508 51.1133 37.6914 51.6445C37.8359 52.1797 38.3828 52.4961 38.918 52.3555C39.4531 52.2109 39.7695 51.6641 39.625 51.1289C39.5117 50.707 39.1367 50.4062 38.6992 50.3906ZM34 51C33.4492 51 33 51.4492 33 52C33 52.5508 33.4492 53 34 53C34.5508 53 35 52.5508 35 52C35 51.4492 34.5508 51 34 51Z" fill="#9E2931"/>
</svg>
