<svg width="27" height="25" viewBox="0 0 27 25" fill="none" xmlns="http://www.w3.org/2000/svg">
<path d="M1.75 1.9165H25.5832" stroke="white" stroke-width="2.5" stroke-linecap="round" stroke-linejoin="round"/>
<path d="M19.1669 7.4165C19.1669 8.63207 18.5875 9.79786 17.556 10.6574C16.5246 11.5169 15.1257 11.9998 13.667 11.9998C12.2083 11.9998 10.8093 11.5169 9.7779 10.6574C8.74645 9.79786 8.16699 8.63207 8.16699 7.4165" stroke="white" stroke-width="2.5" stroke-linecap="round" stroke-linejoin="round"/>
<path d="M6.38424 1.9165H1.75V20.3643C1.75 21.0633 2.029 21.7336 2.52562 22.2278C3.02224 22.7221 3.69581 22.9997 4.39814 22.9997H22.9351C23.6374 22.9997 24.311 22.7221 24.8076 22.2278C25.3042 21.7336 25.5832 21.0633 25.5832 20.3643V1.9165H20.287H14.3286H6.38424Z" stroke="white" stroke-width="2.5" stroke-linecap="round" stroke-linejoin="round"/>
</svg>
