<svg width="30" height="27" viewBox="0 0 30 27" fill="none" xmlns="http://www.w3.org/2000/svg">
<g clip-path="url(#clip0_1_7)">
<g clip-path="url(#clip1_1_7)">
<path d="M2 2H28" stroke="#4B4F54" stroke-width="2.5" stroke-linecap="round" stroke-linejoin="round"/>
<path d="M21 8C21 9.3261 20.3679 10.5979 19.2426 11.5355C18.1174 12.4732 16.5913 13 15 13C13.4087 13 11.8826 12.4732 10.7574 11.5355C9.63214 10.5979 9 9.3261 9 8" stroke="#4B4F54" stroke-width="2.5" stroke-linecap="round" stroke-linejoin="round"/>
<path d="M7.05556 2H2V22.125C2 22.8875 2.30436 23.6188 2.84614 24.1579C3.38791 24.6971 4.12271 25 4.88889 25H25.1111C25.8773 25 26.6121 24.6971 27.1539 24.1579C27.6956 23.6188 28 22.8875 28 22.125V2H22.2222H15.7222H7.05556Z" stroke="#4B4F54" stroke-width="2.5" stroke-linecap="round" stroke-linejoin="round"/>
</g>
</g>
<defs>
<clipPath id="clip0_1_7">
<rect width="30" height="27" fill="white"/>
</clipPath>
<clipPath id="clip1_1_7">
<rect width="30" height="38" fill="white" transform="translate(0 -11)"/>
</clipPath>
</defs>
</svg>
