<svg width="30" height="38" viewBox="0 0 30 38" fill="none" xmlns="http://www.w3.org/2000/svg">
<path d="M2 13H28" stroke="#4B4F54" stroke-width="2.5" stroke-linecap="round" stroke-linejoin="round"/>
<path d="M21 19C21 20.3261 20.3679 21.5979 19.2426 22.5355C18.1174 23.4732 16.5913 24 15 24C13.4087 24 11.8826 23.4732 10.7574 22.5355C9.63214 21.5979 9 20.3261 9 19" stroke="#4B4F54" stroke-width="2.5" stroke-linecap="round" stroke-linejoin="round"/>
<path d="M7.05556 13H2V33.125C2 33.8875 2.30436 34.6188 2.84614 35.1579C3.38791 35.6971 4.12271 36 4.88889 36H25.1111C25.8773 36 26.6121 35.6971 27.1539 35.1579C27.6956 34.6188 28 33.8875 28 33.125V13H22.2222H15.7222H7.05556Z" stroke="#4B4F54" stroke-width="2.5" stroke-linecap="round" stroke-linejoin="round"/>
</svg>
