<svg width="60" height="60" viewBox="0 0 60 60" fill="none" xmlns="http://www.w3.org/2000/svg">
<path d="M24 12H58V14H24V12ZM24 30H58V32H24V30ZM24 48H58V50H24V48Z" fill="#4B4F54"/>
<path d="M9.00002 54.3999L2.40002 47.7999L3.80002 46.1999L9.00002 51.3999L18.2 42.1999L19.6 43.7999L9.00002 54.3999ZM9.00002 36.3999L2.40002 29.7999L3.80002 28.1999L9.00002 33.3999L18.2 24.1999L19.6 25.7999L9.00002 36.3999ZM9.00002 18.3999L2.40002 11.8L3.80002 10.2L9.00002 15.3999L18.2 6.19995L19.6 7.79995L9.00002 18.3999Z" fill="#9E2931"/>
</svg>
