<svg width="46" height="67" viewBox="0 0 46 67" fill="none" xmlns="http://www.w3.org/2000/svg">
<path d="M23 0C10.3095 0 0 10.3095 0 23C0 26.3393 1.43831 30.5385 3.52734 35.1035C5.61637 39.6685 8.38337 44.5661 11.1465 49.0781C16.6727 58.1022 22.1953 65.5938 22.1953 65.5938L23 66.6855L23.8047 65.5938C23.8047 65.5938 29.3273 58.1022 34.8535 49.0781C37.6166 44.5661 40.3836 39.6685 42.4727 35.1035C44.5617 30.5385 46 26.3393 46 23C46 10.3095 35.6905 0 23 0ZM23 2C34.6095 2 44 11.3905 44 23C44 25.7357 42.6883 29.8224 40.6523 34.2715C38.6164 38.7205 35.8834 43.564 33.1465 48.0332C28.3162 55.9209 24.0697 61.7994 23 63.2695C21.9303 61.7994 17.6838 55.9209 12.8535 48.0332C10.1166 43.564 7.38363 38.7205 5.34766 34.2715C3.31169 29.8224 2 25.7357 2 23C2 11.3905 11.3905 2 23 2ZM17 9.36523C16.8675 9.36336 16.7359 9.38784 16.613 9.43726C16.49 9.48667 16.3781 9.56003 16.2837 9.65307C16.1893 9.74612 16.1144 9.85699 16.0632 9.97925C16.0121 10.1015 15.9858 10.2327 15.9858 10.3652C15.9858 10.4978 16.0121 10.629 16.0632 10.7512C16.1144 10.8735 16.1893 10.9844 16.2837 11.0774C16.3781 11.1704 16.49 11.2438 16.613 11.2932C16.7359 11.3426 16.8675 11.3671 17 11.3652C17.1325 11.3671 17.2641 11.3426 17.387 11.2932C17.51 11.2438 17.6219 11.1704 17.7163 11.0774C17.8107 10.9844 17.8856 10.8735 17.9368 10.7512C17.9879 10.629 18.0142 10.4978 18.0142 10.3652C18.0142 10.2327 17.9879 10.1015 17.9368 9.97925C17.8856 9.85699 17.8107 9.74612 17.7163 9.65307C17.6219 9.56003 17.51 9.48667 17.387 9.43726C17.2641 9.38784 17.1325 9.36336 17 9.36523ZM29 9.36523C28.8675 9.36336 28.7359 9.38784 28.613 9.43726C28.49 9.48667 28.3781 9.56003 28.2837 9.65307C28.1893 9.74612 28.1144 9.85699 28.0632 9.97925C28.0121 10.1015 27.9858 10.2327 27.9858 10.3652C27.9858 10.4978 28.0121 10.629 28.0632 10.7512C28.1144 10.8735 28.1893 10.9844 28.2837 11.0774C28.3781 11.1704 28.49 11.2438 28.613 11.2932C28.7359 11.3426 28.8675 11.3671 29 11.3652C29.1325 11.3671 29.2641 11.3426 29.387 11.2932C29.51 11.2438 29.6219 11.1704 29.7163 11.0774C29.8107 10.9844 29.8856 10.8735 29.9368 10.7512C29.9879 10.629 30.0142 10.4978 30.0142 10.3652C30.0142 10.2327 29.9879 10.1015 29.9368 9.97925C29.8856 9.85699 29.8107 9.74612 29.7163 9.65307C29.6219 9.56003 29.51 9.48667 29.387 9.43726C29.2641 9.38784 29.1325 9.36336 29 9.36523ZM13.7207 11.5332L12.9199 11.9336L12.7617 12.8164L13.375 13.4707L13.7207 13.5332L14.5215 13.1309L14.6797 12.25L14.0684 11.5957L13.7207 11.5332ZM32.2793 11.5332L31.4785 11.9336L31.3203 12.8164L31.9316 13.4707L32.2793 13.5332L33.0801 13.1309L33.2383 12.25L32.625 11.5957L32.2793 11.5332ZM11.1816 14.5312L10.3809 14.9316L10.2227 15.8145L10.8359 16.4688L11.1816 16.5312L11.9844 16.1289L12.1406 15.248L11.5293 14.5938L11.1816 14.5312ZM34.8184 14.5312L34.0156 14.9316L33.8594 15.8145L34.4707 16.4688L34.8184 16.5312L35.6191 16.1289L35.7773 15.248L35.1641 14.5938L34.8184 14.5312ZM23 16C19.1459 16 16 19.1459 16 23C16 26.8541 19.1459 30 23 30C26.8541 30 30 26.8541 30 23C30 19.1459 26.8541 16 23 16ZM23 18C25.7733 18 28 20.2267 28 23C28 25.7733 25.7733 28 23 28C20.2267 28 18 25.7733 18 23C18 20.2267 20.2267 18 23 18ZM9.57031 18.1094L8.76758 18.5098L8.61133 19.3926L9.22266 20.0469L9.57031 20.1094L10.3711 19.707L10.5293 18.8242L9.91602 18.1699L9.57031 18.1094ZM36.4297 18.1094L35.6289 18.5098L35.4707 19.3926L36.084 20.0469L36.4297 20.1094L37.2324 19.707L37.3887 18.8242L36.7773 18.1699L36.4297 18.1094ZM9 21.9941L8.19922 22.3965L8.04102 23.2773L8.6543 23.9316L9 23.9941L9.80078 23.5938L9.95898 22.7109L9.34766 22.0566L9 21.9941ZM37 21.9941L36.1992 22.3965L36.041 23.2773L36.6523 23.9316L37 23.9941L37.8008 23.5938L37.959 22.7109L37.3457 22.0566L37 21.9941ZM9.55469 25.8828L8.75391 26.2852L8.5957 27.166L9.20703 27.8203L9.55469 27.8828L10.3555 27.4824L10.5137 26.5996L9.90039 25.9453L9.55469 25.8828ZM36.4453 25.8828L35.6445 26.2852L35.4863 27.166L36.0996 27.8203L36.4453 27.8828L37.2461 27.4824L37.4043 26.5996L36.793 25.9453L36.4453 25.8828ZM11.1621 29.4668L10.3613 29.8672L10.2031 30.75L10.8164 31.4043L11.1621 31.4668L11.9648 31.0645L12.1211 30.1836L11.5098 29.5273L11.1621 29.4668ZM34.8379 29.4668L34.0352 29.8672L33.8789 30.75L34.4902 31.4043L34.8379 31.4668L35.6387 31.0645L35.7969 30.1836L35.1836 29.5273L34.8379 29.4668ZM13.7148 32.4531L12.9121 32.8555L12.7559 33.7363L13.3672 34.3906L13.7148 34.4531L14.5156 34.0508L14.6738 33.1699L14.0605 32.5156L13.7148 32.4531ZM32.2852 32.4531L31.4844 32.8555L31.3262 33.7363L31.9395 34.3906L32.2852 34.4531L33.0879 34.0508L33.2441 33.1699L32.6328 32.5156L32.2852 32.4531ZM17 34.6348C16.8675 34.6329 16.7359 34.6574 16.613 34.7068C16.49 34.7562 16.3781 34.8296 16.2837 34.9226C16.1893 35.0157 16.1144 35.1265 16.0632 35.2488C16.0121 35.371 15.9858 35.5022 15.9858 35.6348C15.9858 35.7673 16.0121 35.8985 16.0632 36.0208C16.1144 36.143 16.1893 36.2539 16.2837 36.3469C16.3781 36.44 16.49 36.5133 16.613 36.5627C16.7359 36.6122 16.8675 36.6366 17 36.6348C17.1325 36.6366 17.2641 36.6122 17.387 36.5627C17.51 36.5133 17.6219 36.44 17.7163 36.3469C17.8107 36.2539 17.8856 36.143 17.9368 36.0208C17.9879 35.8985 18.0142 35.7673 18.0142 35.6348C18.0142 35.5022 17.9879 35.371 17.9368 35.2488C17.8856 35.1265 17.8107 35.0157 17.7163 34.9226C17.6219 34.8296 17.51 34.7562 17.387 34.7068C17.2641 34.6574 17.1325 34.6329 17 34.6348ZM29 34.6348C28.8675 34.6329 28.7359 34.6574 28.613 34.7068C28.49 34.7562 28.3781 34.8296 28.2837 34.9226C28.1893 35.0157 28.1144 35.1265 28.0632 35.2488C28.0121 35.371 27.9858 35.5022 27.9858 35.6348C27.9858 35.7673 28.0121 35.8985 28.0632 36.0208C28.1144 36.143 28.1893 36.2539 28.2837 36.3469C28.3781 36.44 28.49 36.5133 28.613 36.5627C28.7359 36.6122 28.8675 36.6366 29 36.6348C29.1325 36.6366 29.2641 36.6122 29.387 36.5627C29.51 36.5133 29.6219 36.44 29.7163 36.3469C29.8107 36.2539 29.8856 36.143 29.9368 36.0208C29.9879 35.8985 30.0142 35.7673 30.0142 35.6348C30.0142 35.5022 29.9879 35.371 29.9368 35.2488C29.8856 35.1265 29.8107 35.0157 29.7163 34.9226C29.6219 34.8296 29.51 34.7562 29.387 34.7068C29.2641 34.6574 29.1325 34.6329 29 34.6348Z" fill="#9E2931"/>
</svg>
