<svg width="63" height="64" viewBox="0 0 63 64" fill="none" xmlns="http://www.w3.org/2000/svg">
<path d="M31.5 61.9824C48.1502 61.9824 61.6478 48.41 61.6478 31.6675C61.6478 14.925 48.1502 1.35254 31.5 1.35254C14.8499 1.35254 1.35229 14.925 1.35229 31.6675C1.35229 48.41 14.8499 61.9824 31.5 61.9824Z" fill="white"/>
<path d="M31.5 58.2158C46.1622 58.2158 58.0483 46.3297 58.0483 31.6675C58.0483 17.0052 46.1622 5.11914 31.5 5.11914C16.8377 5.11914 4.95166 17.0052 4.95166 31.6675C4.95166 46.3297 16.8377 58.2158 31.5 58.2158Z" fill="#141A20"/>
<path d="M45.8388 9.37223L19.2659 55.2306C14.8207 52.9146 11.118 49.384 8.59546 45.0716L31.7164 5.16797C36.914 5.21222 41.7575 6.74641 45.8388 9.37223V9.37223Z" fill="#ED1C24"/>
<path d="M57.9598 29.8182L43.031 55.5846C39.5447 57.2713 35.6305 58.2154 31.5 58.2154C29.3856 58.2154 27.3351 57.9695 25.3633 57.5024L50.8396 13.5371C54.8964 17.8594 57.5222 23.5388 57.9598 29.8182V29.8182Z" fill="#ED1C24"/>
<path d="M22.2654 6.82031L5.33036 36.0436C5.09925 34.6274 4.97632 33.1719 4.97632 31.6918C4.97632 20.2887 12.1703 10.5722 22.2654 6.82031Z" fill="#ED1C24"/>
<path d="M57.9993 46.1336C57.7091 46.6696 57.3994 47.1957 57.0748 47.712H5.92542C5.60088 47.1957 5.2911 46.6696 5.00098 46.1336L30.8756 1.3668C31.0821 1.36188 31.2887 1.35205 31.5001 1.35205C31.7066 1.35205 31.9132 1.36188 32.1197 1.3668L36.8894 9.61306V9.60814L57.9993 46.1336Z" fill="white"/>
<path d="M40.6757 39.9185L43.7047 45.1553H19.2954L22.3195 39.9185H40.6757Z" fill="#ED1C24"/>
<path d="M31.4999 5.39893L35.4435 12.2241L30.0542 21.5423L33.8799 28.1609H26.2286L16.4088 45.155H8.5166L31.4999 5.39893Z" fill="#ED1C24"/>
<path d="M42.1262 37.4301H23.7603L27.6793 30.6492H38.2072L32.9457 21.5473L36.8894 14.7222L54.4833 45.1551H46.596L42.1262 37.4301Z" fill="#ED1C24"/>
<path fill-rule="evenodd" clip-rule="evenodd" d="M31.5 63.3344C14.1322 63.3344 0 49.1284 0 31.6672C0 14.206 14.1322 0 31.5 0C48.8678 0 63 14.206 63 31.6672C63 49.1284 48.8678 63.3344 31.5 63.3344V63.3344ZM31.5 2.69958C15.6222 2.69958 2.7045 15.6959 2.7045 31.6672C2.7045 47.6385 15.6222 60.6348 31.5 60.6348C47.3778 60.6348 60.2955 47.6385 60.2955 31.6672C60.2955 15.6959 47.3778 2.69958 31.5 2.69958V2.69958Z" fill="#ED1C24"/>
</svg>
