<svg width="64" height="64" viewBox="0 0 64 64" fill="none" xmlns="http://www.w3.org/2000/svg">
<path d="M31.9001 61.9821C48.5502 61.9821 62.0478 48.4097 62.0478 31.6672C62.0478 14.9247 48.5502 1.35225 31.9001 1.35225C15.2499 1.35225 1.75232 14.9247 1.75232 31.6672C1.75232 48.4097 15.2499 61.9821 31.9001 61.9821Z" fill="white"/>
<path d="M31.9 58.2155C46.5622 58.2155 58.4483 46.3294 58.4483 31.6672C58.4483 17.005 46.5622 5.11887 31.9 5.11887C17.2378 5.11887 5.35168 17.005 5.35168 31.6672C5.35168 46.3294 17.2378 58.2155 31.9 58.2155Z" fill="#141A20"/>
<path d="M46.2486 9.32313L19.6511 55.2258C15.2059 52.9098 11.4983 49.3743 8.97083 45.0618L32.1164 5.11887C37.3189 5.1582 42.1673 6.69731 46.2486 9.32313V9.32313Z" fill="#B72527"/>
<path d="M58.3844 29.7937L43.4408 55.5848C39.9495 57.2714 36.0354 58.2155 31.9 58.2155C29.7855 58.2155 27.7301 57.9696 25.7583 57.5025L51.2543 13.493C55.316 17.8202 57.9467 23.5045 58.3844 29.7937V29.7937Z" fill="#B72527"/>
<path d="M22.6556 6.77107L5.70576 36.019C5.47465 34.6028 5.3468 33.1473 5.3468 31.6672C5.3468 20.2542 12.5506 10.5229 22.6556 6.77107Z" fill="#B72527"/>
<path d="M58.3992 46.1338C58.109 46.6698 57.7993 47.1959 57.4747 47.7122H6.32532C6.00078 47.1959 5.691 46.6698 5.40088 46.1338L31.2755 1.367C31.4821 1.36208 31.6886 1.35225 31.9 1.35225C32.1065 1.35225 32.3131 1.36208 32.5196 1.367L37.2893 9.61325V9.60834L58.3992 46.1338Z" fill="white"/>
<path d="M41.0756 39.9184L44.1046 45.1553H19.6953L22.7194 39.9184H41.0756Z" fill="#B72527"/>
<path d="M31.9 5.39915L35.8437 12.2243L30.4544 21.5425L34.28 28.1612H26.6287L16.809 45.1552H8.91675L31.9 5.39915Z" fill="#B72527"/>
<path d="M42.5263 37.4302H24.1603L28.0793 30.6493H38.6072L33.3457 21.5475L37.2894 14.7223L54.8834 45.1552H46.9961L42.5263 37.4302Z" fill="#B72527"/>
<path fill-rule="evenodd" clip-rule="evenodd" d="M31.9 63.3344C14.5322 63.3344 0.400024 49.1284 0.400024 31.6672C0.400024 14.206 14.5322 0 31.9 0C49.2678 0 63.4 14.206 63.4 31.6672C63.4 49.1284 49.2678 63.3344 31.9 63.3344V63.3344ZM31.9 2.69958C16.0222 2.69958 3.10452 15.6959 3.10452 31.6672C3.10452 47.6385 16.0222 60.6348 31.9 60.6348C47.7779 60.6348 60.6955 47.6385 60.6955 31.6672C60.6955 15.6959 47.7779 2.69958 31.9 2.69958V2.69958Z" fill="#B72527"/>
</svg>
