<svg width="11" height="7" viewBox="0 0 11 7" fill="none" xmlns="http://www.w3.org/2000/svg">
<path d="M10.6152 1.39862C10.8353 1.15095 10.813 0.771705 10.5654 0.551554C10.3177 0.331404 9.93845 0.353712 9.7183 0.601382L10.6152 1.39862ZM5.7223 6L5.2861 6.41197C5.4016 6.53428 5.56315 6.60247 5.73136 6.59993C5.89957 6.59739 6.05898 6.52435 6.17075 6.39862L5.7223 6ZM1.43629 0.588026C1.20876 0.347115 0.829018 0.336265 0.588107 0.563792C0.347196 0.791319 0.336346 1.17106 0.563873 1.41197L1.43629 0.588026ZM9.7183 0.601382L5.27386 5.60138L6.17075 6.39862L10.6152 1.39862L9.7183 0.601382ZM6.15851 5.58803L1.43629 0.588026L0.563873 1.41197L5.2861 6.41197L6.15851 5.58803Z" fill="#4B4F54"/>
</svg>
