<svg width="24" height="24" viewBox="0 0 24 24" fill="none" xmlns="http://www.w3.org/2000/svg">
<path d="M20.5526 0H2.77738C1.24593 0 0 1.24593 0 2.77738V20.5526C0 22.0841 1.24593 23.33 2.77738 23.33H20.5526C22.0841 23.33 23.33 22.0841 23.33 20.5526V2.77738C23.33 1.24593 22.0841 0 20.5526 0ZM18.334 10.178C18.208 10.1897 18.0802 10.1974 17.9508 10.1974C16.4938 10.1974 15.2134 9.44809 14.4685 8.31548C14.4685 11.2867 14.4685 14.6673 14.4685 14.724C14.4685 17.3397 12.3477 19.4606 9.73194 19.4606C7.11621 19.4606 4.9954 17.3397 4.9954 14.724C4.9954 12.1083 7.11621 9.98746 9.73194 9.98746C9.83082 9.98746 9.92747 9.99635 10.0247 10.0025V12.3366C9.92747 12.3249 9.83193 12.3071 9.73194 12.3071C8.39658 12.3071 7.31451 13.3892 7.31451 14.7246C7.31451 16.0599 8.39658 17.142 9.73194 17.142C11.0673 17.142 12.2466 16.0899 12.2466 14.7546C12.2466 14.7018 12.2699 3.87056 12.2699 3.87056H14.5007C14.7107 5.86527 16.321 7.43949 18.334 7.58392V10.178Z" fill="#4B4F54"/>
</svg>
