<svg width="24" height="15" viewBox="0 0 24 15" fill="none" xmlns="http://www.w3.org/2000/svg">
<path d="M23.2042 12.8372C22.2514 11.1224 19.797 9.062 18.7838 8.1654C18.5065 7.91991 18.4768 7.4952 18.7292 7.22373C20.6629 5.14579 22.2096 2.75821 22.7419 1.31548C22.9768 0.678152 22.4906 0.00477189 21.8055 0.00477189H19.8156C19.1597 0.00477189 18.7758 0.24019 18.5929 0.615056C16.9858 3.90826 15.6072 5.33349 14.6422 6.16647C14.1019 6.63306 13.2594 6.24653 13.2594 5.53656C13.2594 4.1686 13.2594 2.40031 13.2594 1.14634C13.2594 0.538174 12.7621 0.0461291 12.1486 0.0461291L8.51342 0.00477189C8.05584 0.00477189 7.79444 0.522797 8.0691 0.885999L8.66931 1.74761C8.89518 2.04612 9.01713 2.40932 9.01713 2.78207L9.01395 6.66222C9.01395 7.33719 8.19582 7.66699 7.71014 7.19403C6.06698 5.59383 4.64122 2.32608 4.12797 0.763518C3.97951 0.311239 3.55586 0.00583233 3.07548 0.00477189L1.11525 0C0.379838 0 -0.157806 0.69724 0.0420869 1.39925C1.83317 7.68608 5.50813 13.667 12.0574 14.3154C12.7027 14.3791 13.2594 13.8594 13.2594 13.2163V11.1771C13.2594 10.5922 13.7181 10.0896 14.3077 10.0747C14.3284 10.0742 14.349 10.0742 14.3697 10.0742C16.1019 10.0742 18.042 12.5954 18.7207 13.7746C18.9158 14.1139 19.2806 14.3207 19.6751 14.3207H22.3119C23.0812 14.3207 23.5749 13.5047 23.2042 12.8372Z" fill="#4B4F54"/>
</svg>
